<svg fill="none" height="45" viewBox="0 0 45 45" width="45" xmlns="http://www.w3.org/2000/svg"><path d="m22.5 0c-12.375 0-22.5 10.1431-22.5 22.6355 0 11.2952 8.23499 20.6702 18.99 22.3645v-15.8133h-5.715v-6.5512h5.715v-4.9924c0-5.6702 3.3525-8.78768 8.505-8.78768 2.4525 0 5.0175.42922 5.0175.42922v5.57986h-2.835c-2.79 0-3.6675 1.7394-3.6675 3.5241v4.2469h6.255l-1.0125 6.5512h-5.2425v15.8133c5.302-.8407 10.1299-3.5568 13.6123-7.658s5.3897-9.3172 5.3776-14.7065c0-12.4924-10.1249-22.6355-22.4999-22.6355z" fill="#cacaca"/></svg>