<svg fill="none" height="45" viewBox="0 0 45 45" width="45" xmlns="http://www.w3.org/2000/svg"><g fill="#cacaca"><path d="m18.1172 22.5c0 2.3785 1.9281 4.3066 4.3066 4.3066 2.3786 0 4.3067-1.9281 4.3067-4.3066s-1.9281-4.3066-4.3067-4.3066c-2.3785 0-4.3066 1.9281-4.3066 4.3066z"/><path d="m12.3521 14.8803c.207-.5609.5373-1.0687.9664-1.4855.4168-.4292.9243-.7594 1.4856-.9665.4552-.1768 1.1391-.3872 2.3988-.4446 1.3626-.0621 1.7712-.0755 5.2209-.0755 3.45 0 3.8586.013 5.2209.0752 1.2597.0577 1.9439.2681 2.3988.4449.5613.2071 1.0691.5373 1.4856.9665.4291.4168.7594.9242.9668 1.4855.1768.4553.3872 1.1395.4446 2.3992.0621 1.3623.0755 1.7708.0755 5.2209 0 3.4497-.0134 3.8583-.0755 5.2209-.0574 1.2597-.2678 1.9436-.4446 2.3988-.2074.5613-.5373 1.0688-.9665 1.4856-.4168.4291-.9242.7594-1.4856.9664-.4552.1772-1.1394.3876-2.3991.445-1.3623.0621-1.7705.0751-5.2206.0751-3.4504 0-3.8589-.013-5.2209-.0751-1.2596-.0574-1.9439-.2678-2.3991-.445-1.1268-.4346-2.0174-1.3252-2.452-2.452-.1768-.4552-.3873-1.1391-.445-2.3988-.0621-1.3626-.0752-1.7712-.0752-5.2209 0-3.4501.0131-3.8586.0752-5.2209.0574-1.2597.2678-1.9439.445-2.3992zm10.0717 14.2541c3.6643 0 6.6347-2.9701 6.6347-6.6343 0-3.6643-2.9704-6.6344-6.6347-6.6344-3.6639 0-6.6344 2.9701-6.6344 6.6344 0 3.6642 2.9705 6.6343 6.6344 6.6343zm-6.8967-11.9806c.8563 0 1.5505-.6942 1.5505-1.5504 0-.8563-.6942-1.5505-1.5505-1.5505-.8562 0-1.5504.6942-1.5504 1.5505.0003.8562.6942 1.5504 1.5504 1.5504z"/><path d="m22.6204 0c12.316 0 22.3034 9.98747 22.3034 22.3034 0 12.316-9.9874 22.3035-22.3034 22.3035s-22.303441-9.9875-22.303441-22.3035c0-12.31593 9.987441-22.3034 22.303441-22.3034zm-12.72981 27.5836c.06194 1.3633.27871 2.2941.59521 3.1088.6654 1.7203 2.0253 3.0803 3.7456 3.7456.8144.3165 1.7455.533 3.1085.5952 1.3658.0623 1.802.0773 5.2802.0773 3.4784 0 3.9144-.015 5.2804-.0773 1.363-.0622 2.2941-.2787 3.1085-.5952.8549-.3216 1.6288-.8256 2.2686-1.4773.6514-.6395 1.1554-1.4137 1.477-2.2683.3165-.8144.5333-1.7455.5952-3.1085.063-1.3661.0776-1.8024.0776-5.2805s-.0146-3.9144-.0772-5.2801c-.0619-1.3633-.2784-2.2941-.5949-3.1088-.3216-.8546-.826-1.6288-1.4777-2.2683-.6394-.6517-1.4137-1.1557-2.2682-1.4773-.8148-.31654-1.7456-.53298-3.1089-.59526-1.3657-.06228-1.802-.07726-5.2801-.07726s-3.9144.01498-5.2801.0776c-1.3634.06194-2.2941.27838-3.1089.59452-.8545.3216-1.6288.826-2.2686 1.4777-.6514.6398-1.1557 1.4137-1.477 2.2683-.3168.8147-.53327 1.7455-.59555 3.1088-.06227 1.3657-.07691 1.802-.07691 5.2801s.01464 3.9144.07725 5.2802z"/></g></svg>