<svg fill="none" height="22" viewBox="0 0 97 22" width="97" xmlns="http://www.w3.org/2000/svg"><g fill="#fff"><path d="m1.56236 17.8034-1.398791-1.9799h1.010451l.95012 1.4163.95766-1.4163h1.0029l-1.40256 1.9799 1.4742 2.0677h-1.00291l-1.02929-1.5151-1.02553 1.5151h-1.0029069z"/><path d="m4.25437 15.8235h.9652l.84832 2.2946c.12819.3269.21365.6343.25638.9222h.03017c.02262-.1342.06409-.2964.12442-.4867.06032-.1927.37954-1.1028.95766-2.7301h.95766l-1.78336 4.5855c-.32425.8418-.86466 1.2626-1.62124 1.2626-.19606 0-.38709-.0207-.57309-.0622v-.6807c.13322.0293.28529.0439.45621.0439.4273 0 .72767-.2403.90111-.7209l.15458-.3806z"/><path d="m13.0279 21.302h-.8257v-1.4309h-2.8579v1.4309h-.81816v-2.097h.33933c.2966-.4123.53162-.91.70505-1.4931.17595-.5856.28026-1.215.31294-1.8884h2.53364v3.3815h.6108zm-1.4817-2.097v-2.7228h-.8974c-.0477.5026-.1483.9979-.3016 1.4859-.1508.4879-.3356.9002-.55423 1.2369z"/><path d="m17.4995 17.84c0 .6611-.1747 1.1772-.5241 1.548s-.8357.5563-1.4591.5563c-.3896 0-.7339-.0854-1.0331-.2562-.2991-.1708-.5291-.416-.6899-.7356-.1609-.3196-.2413-.6905-.2413-1.1125 0-.6563.1734-1.1687.5203-1.5371s.8357-.5526 1.4666-.5526c.6033 0 1.0809.1891 1.4328.5673.3519.3757.5278.8831.5278 1.5224zm-3.0351 0c0 .9344.3557 1.4016 1.067 1.4016.7038 0 1.0557-.4672 1.0557-1.4016 0-.9247-.3544-1.387-1.0632-1.387-.372 0-.6423.1195-.8107.3586-.1659.2391-.2488.5819-.2488 1.0284z"/><path d="m20.5761 17.7887v-1.9652h.8257v1.9652l1.6061-1.9652h.9351l-1.6401 1.9579 1.7871 2.0897h-.9765l-1.7117-2.0531v2.0531h-.8257v-2.0531l-1.708 2.0531h-.9727l1.7834-2.0897-1.6364-1.9579h.9351z"/><path d="m26.5558 19.9443c-.6485 0-1.1562-.183-1.5232-.549-.3645-.3684-.5467-.8746-.5467-1.5187 0-.6612.1697-1.1809.509-1.559.3393-.3782.8056-.5673 1.3988-.5673.5505 0 .9853.1622 1.3045.4867s.4789.771.4789 1.3395v.4648h-2.7788c.0126.3928.1219.6953.328.9075.2062.2099.4965.3148.871.3148.2463 0 .4751-.022.6862-.0659.2136-.0464.4424-.122.6862-.2269v.699c-.2162.1-.4349.1708-.656.2123-.2212.0414-.4739.0622-.7579.0622zm-.1621-3.5426c-.2815 0-.5077.0866-.6787.2599-.1684.1732-.2689.4257-.3016.7575h1.8927c-.005-.3342-.088-.5868-.2488-.7575-.1609-.1733-.3821-.2599-.6636-.2599z"/><path d="m30.8653 19.9443c-.6309 0-1.111-.1781-1.4403-.5343-.3267-.3587-.4901-.8723-.4901-1.5408 0-.6806.1709-1.204.5128-1.5699.3443-.366.8407-.549 1.4892-.549.4399 0 .8358.0793 1.1877.2379l-.2677.6917c-.3745-.1415-.6837-.2123-.9275-.2123-.7214 0-1.0821.4648-1.0821 1.3943 0 .4538.0892.7954.2677 1.0247.181.2269.4449.3404.7918.3404.3946 0 .7679-.0952 1.1198-.2855v.7503c-.1584.0902-.3281.1549-.509.1939-.1785.0391-.3959.0586-.6523.0586z"/><path d="m36.14 15.8235v.6734h-1.3573v3.3742h-.8898v-3.3742h-1.3574v-.6734z"/><path d="m40.5626 16.8592c0 .4782-.2878.7673-.8634.8673v.0293c.3217.0366.568.1354.7389.2964.171.1611.2564.3697.2564.6258 0 .3831-.1508.6783-.4524.8857-.2991.2049-.7352.3074-1.3083.3074h-1.9907v-4.0476h1.9831c1.0909 0 1.6364.3452 1.6364 1.0357zm-.7767 1.7676c0-.1952-.0779-.333-.2338-.4135-.1558-.083-.3896-.1245-.7013-.1245h-1.0217v1.1455h1.0444c.6082 0 .9124-.2025.9124-.6075zm-.1094-1.6944c0-.1611-.0653-.2769-.196-.3477-.1282-.0732-.3205-.1098-.5769-.1098h-1.0745v.9735h.9426c.2966 0 .5215-.0366.6748-.1098.1534-.0756.23-.211.23-.4062z"/><path d="m43.4318 19.9443c-.6485 0-1.1563-.183-1.5232-.549-.3645-.3684-.5467-.8746-.5467-1.5187 0-.6612.1696-1.1809.509-1.559.3393-.3782.8056-.5673 1.3988-.5673.5504 0 .9853.1622 1.3045.4867s.4788.771.4788 1.3395v.4648h-2.7787c.0126.3928.1219.6953.328.9075.2061.2099.4964.3148.8709.3148.2464 0 .4751-.022.6863-.0659.2136-.0464.4423-.122.6861-.2269v.699c-.2161.1-.4348.1708-.656.2123-.2212.0414-.4738.0622-.7578.0622zm-.1621-3.5426c-.2816 0-.5078.0866-.6787.2599-.1684.1732-.269.4257-.3016.7575h1.8927c-.0051-.3342-.088-.5868-.2489-.7575-.1608-.1733-.382-.2599-.6635-.2599z"/><path d="m46.9457 15.8235v1.6249h1.9644v-1.6249h.886v4.0476h-.886v-1.7457h-1.9644v1.7457h-.886v-4.0476z"/><path d="m51.9527 15.8235v1.6249h1.9643v-1.6249h.8861v4.0476h-.8861v-1.7457h-1.9643v1.7457h-.886v-4.0476z"/><path d="m58.6827 19.8711-.1772-.5636h-.0301c-.2011.2464-.4035.4148-.6071.505-.2036.0879-.465.1318-.7842.1318-.4097 0-.7302-.1074-.9614-.3221-.2288-.2147-.3431-.5184-.3431-.9112 0-.4172.1596-.732.4788-.9442.3192-.2123.8056-.3282 1.4591-.3477l.7202-.0219v-.216c0-.2586-.0629-.4513-.1886-.5782-.1231-.1293-.3154-.194-.5768-.194-.2137 0-.4185.0305-.6146.0915-.196.061-.3846.133-.5655.216l-.2866-.6149c.2262-.1146.4738-.2012.7428-.2598.2689-.061.5228-.0915.7616-.0915.5303 0 .93.1122 1.1989.3367.2715.2245.4072.577.4072 1.0576v2.7265zm-1.3196-.5856c.3217 0 .5794-.0866.7729-.2598.1961-.1757.2941-.4209.2941-.7356v-.3513l-.5354.0219c-.4172.0147-.7214.083-.9124.205-.1885.1195-.2828.3037-.2828.5526 0 .1805.0553.3208.1659.4208.1106.0976.2765.1464.4977.1464z"/><path d="m60.9789 19.8711h-.9916l1.1612-1.6578c-.2815-.0781-.5027-.2172-.6636-.4172-.1608-.2025-.2413-.4526-.2413-.7503 0-.383.1408-.6819.4223-.8966.2815-.2171.6661-.3257 1.1537-.3257h1.9003v4.0476h-.8898v-1.559h-.8408zm.1281-2.818c0 .2074.0805.3636.2413.4685.1634.1024.3821.1537.6561.1537h.8257v-1.2004h-.9652c-.2413 0-.4286.05-.5618.1501-.1307.1-.1961.2427-.1961.4281z"/><path d="m69.6883 15.8235v.6734h-1.8098v3.3742h-.886v-4.0476z"/><path d="m73.1004 19.8711-.1772-.5636h-.0301c-.2011.2464-.4035.4148-.6071.505-.2036.0879-.465.1318-.7842.1318-.4097 0-.7302-.1074-.9614-.3221-.2287-.2147-.3431-.5184-.3431-.9112 0-.4172.1596-.732.4788-.9442.3192-.2123.8056-.3282 1.4591-.3477l.7202-.0219v-.216c0-.2586-.0629-.4513-.1886-.5782-.1231-.1293-.3154-.194-.5768-.194-.2137 0-.4185.0305-.6146.0915-.196.061-.3845.133-.5655.216l-.2866-.6149c.2263-.1146.4738-.2012.7428-.2598.2689-.061.5228-.0915.7616-.0915.5304 0 .93.1122 1.199.3367.2714.2245.4071.577.4071 1.0576v2.7265zm-1.3196-.5856c.3218 0 .5794-.0866.7729-.2598.1961-.1757.2941-.4209.2941-.7356v-.3513l-.5354.0219c-.4172.0147-.7214.083-.9124.205-.1885.1195-.2828.3037-.2828.5526 0 .1805.0553.3208.1659.4208.1106.0976.2765.1464.4977.1464z"/><path d="m78.3977 19.8711h-.8935v-3.3742h-1.15c-.0704.8685-.1659 1.5468-.2865 2.0347-.1182.488-.274.8442-.4675 1.0687-.1911.2244-.4399.3367-.7466.3367-.1935 0-.3556-.0269-.4863-.0806v-.6733c.093.0341.186.0512.279.0512.2563 0 .4574-.2794.6032-.8381.1483-.5611.2639-1.4187.3469-2.5727h2.8013z"/><path d="m81.4894 19.9443c-.6485 0-1.1562-.183-1.5232-.549-.3645-.3684-.5467-.8746-.5467-1.5187 0-.6612.1696-1.1809.509-1.559.3393-.3782.8056-.5673 1.3988-.5673.5504 0 .9853.1622 1.3045.4867s.4788.771.4788 1.3395v.4648h-2.7787c.0126.3928.1219.6953.328.9075.2061.2099.4964.3148.871.3148.2463 0 .475-.022.6862-.0659.2136-.0464.4424-.122.6862-.2269v.699c-.2162.1-.4349.1708-.6561.2123-.2212.0414-.4738.0622-.7578.0622zm-.1621-3.5426c-.2815 0-.5078.0866-.6787.2599-.1684.1732-.2689.4257-.3016.7575h1.8927c-.005-.3342-.088-.5868-.2489-.7575-.1608-.1733-.382-.2599-.6635-.2599z"/><path d="m86.2325 19.9443c-.5279 0-.9376-.1842-1.2292-.5526h-.0528c.0352.3415.0528.5489.0528.6221v1.6578h-.886v-5.8481h.7164c.0201.0756.0616.2562.1244.5416h.0452c.2765-.4099.6913-.6148 1.2442-.6148.5203 0 .925.183 1.2141.549.2916.3659.4373.8795.4373 1.5407 0 .6611-.1483 1.1772-.4449 1.548-.294.3708-.7012.5563-1.2215.5563zm-.215-3.4913c-.3518 0-.6095.1-.7729.3001-.1608.2-.2413.5196-.2413.9588v.1281c0 .4928.0805.8502.2413 1.0722.1609.2196.4236.3294.788.3294.3067 0 .543-.122.7088-.3659.1659-.244.2489-.5917.2489-1.0431 0-.4537-.083-.7965-.2489-1.0283-.1633-.2342-.4046-.3513-.7239-.3513z"/><path d="m90.7493 19.9443c-.6485 0-1.1562-.183-1.5232-.549-.3645-.3684-.5467-.8746-.5467-1.5187 0-.6612.1697-1.1809.509-1.559.3393-.3782.8056-.5673 1.3988-.5673.5505 0 .9853.1622 1.3045.4867s.4789.771.4789 1.3395v.4648h-2.7788c.0126.3928.1219.6953.328.9075.2062.2099.4965.3148.871.3148.2463 0 .475-.022.6862-.0659.2136-.0464.4424-.122.6862-.2269v.699c-.2162.1-.4349.1708-.6561.2123-.2212.0414-.4738.0622-.7578.0622zm-.1621-3.5426c-.2815 0-.5077.0866-.6787.2599-.1684.1732-.2689.4257-.3016.7575h1.8927c-.005-.3342-.088-.5868-.2488-.7575-.1609-.1733-.3821-.2599-.6636-.2599z"/><path d="m93.8033 19.8711h-.9916l1.1612-1.6578c-.2815-.0781-.5027-.2172-.6635-.4172-.1609-.2025-.2413-.4526-.2413-.7503 0-.383.1407-.6819.4222-.8966.2816-.2171.6661-.3257 1.1538-.3257h1.9002v4.0476h-.8898v-1.559h-.8408zm.1282-2.818c0 .2074.0804.3636.2413.4685.1633.1024.382.1537.656.1537h.8257v-1.2004h-.9652c-.2413 0-.4286.05-.5618.1501-.1307.1-.196.2427-.196.4281z"/><path d="m0 11.7307h6.52484c2.5733 0 3.89046-1.1312 3.89046-3.28463v-.03351c0-1.6004-.8374-2.57237-2.45116-2.84888v-.15082c1.35207-.25137 2.05866-1.10603 2.05866-2.49695v-.0419c0-1.893662-1.22997-2.87401-3.63753-2.87401h-6.38527zm2.5733-6.92951v-3.14214h3.04434c1.22995 0 1.84056.5195 1.84056 1.54174v.03352c0 1.039-.61061 1.56688-1.84056 1.56688zm0 5.26201v-3.73702h3.12285c1.35207 0 2.02375.62005 2.02375 1.83501v.03351c0 1.2401-.67168 1.8685-2.02375 1.8685z"/><path d="m12.8393 0v11.7307h2.5384v-11.7307z"/><path d="m20.689 11.9485c2.0499 0 3.5415-.8798 4.0911-2.37126l.1744.0419c-.3314 1.62556.0175 2.32936 2.0238 2.32936.253 0 .5059-.0251.7153-.0586l.2966-1.4496-.4362-.0084c-.4798-.0084-.6193-.1173-.6193-.71221v-4.03032c0-1.99421-1.3783-2.94942-4.3179-2.94942-3.1229 0-4.7018 1.18144-4.5709 3.22593l2.5035.20109c-.1047-1.34902.6106-1.96069 2.015-1.96069 1.2561 0 1.8493.44409 1.8493 1.45795v.49437l-2.4773.43571c-2.4774.44408-4.1173 1.1982-4.1173 3.04159v.02514c0 1.45796 1.0293 2.28746 2.8699 2.28746zm1.0118-1.6255c-.8548 0-1.3171-.2933-1.3171-.89658v-.01676c0-.86304.8112-1.21496 2.4162-1.5166l1.6138-.30165v.41057c0 1.34903-1.2648 2.32102-2.7129 2.32102z"/><path d="m30.1263 11.7307h2.5384v-4.08901c0-1.97746.9682-3.2008 2.5733-3.2008 1.195 0 1.7882.59491 1.7882 1.73446v5.55535h2.5384v-6.14188c0-1.84339-1.1253-2.81536-3.2188-2.81536-1.9016 0-3.2014.80439-3.969 2.4802l-.1745-.07541c.349-.99711.4711-1.59202.4711-2.24559h-2.5471z"/><path d="m47.1177 11.9401c2.992 0 4.6668-1.1563 4.9198-3.39348l-2.5646-.27651c-.1046 1.40768-.9072 2.11989-2.3465 2.11989-1.6137 0-2.4511-.97196-2.4511-2.89076v-.41057c0-1.87691.8461-2.82374 2.425-2.82374 1.4567 0 2.2156.77925 2.329 2.33775l2.5297-.2765c-.2006-2.37127-1.8144-3.60299-4.85-3.60299-3.2973 0-5.0332 1.55012-5.0332 4.5163v.10893c0 3.01648 1.7184 4.59168 5.0419 4.59168z"/><path d="m54.5661 11.7307h2.5384v-4.08901c0-1.97746.9596-3.19242 2.5733-3.19242 1.1951 0 1.7883.58653 1.7883 1.72608v5.55535h2.5384v-6.14188c0-1.84339-1.134-2.81536-3.2188-2.81536-1.9191 0-3.2101.80439-3.969 2.47182l-.1832-.06703c.3402-.93845.4623-1.63392.471-2.46344v-2.71481h-2.5384z"/><path d="m69.2722 11.9485c2.0499 0 3.5415-.8798 4.0911-2.37126l.1744.0419c-.3314 1.62556.0175 2.32936 2.0238 2.32936.2529 0 .5059-.0251.7153-.0586l.2965-1.4496-.4361-.0084c-.4798-.0084-.6193-.1173-.6193-.71221v-4.03032c0-1.99421-1.3783-2.94942-4.318-2.94942-3.1228 0-4.7017 1.18144-4.5708 3.22593l2.5035.20109c-.1047-1.34902.6106-1.96069 2.015-1.96069 1.2561 0 1.8493.44409 1.8493 1.45795v.49437l-2.4773.43571c-2.4774.44408-4.1173 1.1982-4.1173 3.04159v.02514c0 1.45796 1.0293 2.28746 2.8699 2.28746zm1.0118-1.6255c-.8548 0-1.3171-.2933-1.3171-.89658v-.01676c0-.86304.8112-1.21496 2.4162-1.5166l1.6138-.30165v.41057c0 1.34903-1.2648 2.32102-2.7129 2.32102z"/><path d="m78.7094 11.7307h2.5384v-3.67844c0-2.29586.7415-3.14214 2.678-3.27621l1.2474-.09217-.2966-2.02772c-2.0499.15082-3.0007.77087-3.9428 2.5975l-.1657-.07541c.41-1.17307.5059-1.64229.4885-2.24559h-2.5472z"/><path d="m90.7811 11.8899c1.8842 0 3.1141-.8379 3.7334-2.35455l.1832.05865c-.2965.9217-.4536 1.6507-.4623 2.1367h2.5646v-11.7307h-2.5384v2.38803c0 .92169.1308 1.66743.4449 2.68129l-.1745.06703c-.6193-1.50823-1.858-2.37965-3.7509-2.37965-2.6169 0-3.9952 1.53337-3.9952 4.46603v.20948c0 2.92429 1.3783 4.45769 3.9952 4.45769zm.9595-1.5083c-1.5701 0-2.3901-.96356-2.3901-2.8656v-.38544c0-1.91042.82-2.88239 2.3901-2.88239 1.64 0 2.521 1.02225 2.521 2.92429v.30165c0 1.89366-.881 2.90749-2.521 2.90749z"/></g></svg>