<svg fill="none" height="42" viewBox="0 0 188 42" width="188" xmlns="http://www.w3.org/2000/svg"><g fill="#fff"><path d="m3.02551 34.5032-2.71088-3.837h1.95826l1.84135 2.7448 1.85597-2.7448h1.94364l-2.71818 3.837 2.85702 4.0073h-1.94365l-1.9948-2.9363-1.98749 2.9363h-1.943645z"/><path d="m8.24267 30.6662h1.87053l1.6441 4.447c.2484.6336.4141 1.2293.4969 1.7873h.0584c.0439-.2601.1243-.5745.2412-.9433.1169-.3735.7355-2.1372 1.8559-5.291h1.856l-3.4562 8.8869c-.6284 1.6312-1.6757 2.4469-3.14198 2.4469-.37996 0-.75018-.0402-1.11066-.1206v-1.3192c.25818.0567.5529.0851.88414.0851.8281 0 1.4102-.4657 1.7464-1.3972l.2995-.7376z"/><path d="m25.2459 41.2836h-1.6002v-2.7731h-5.5387v2.7731h-1.5856v-4.0639h.6577c.5748-.7991 1.0302-1.7637 1.3664-2.8938.3409-1.1348.5431-2.3547.6064-3.6597h4.9103v6.5535h1.1837zm-2.8716-4.0639v-5.2769h-1.7391c-.0925.9741-.2874 1.9339-.5845 2.8796-.2923.9457-.6503 1.7447-1.0741 2.3973z"/><path d="m33.912 34.5742c0 1.2813-.3386 2.2814-1.0157 3.0001s-1.6197 1.078-2.8278 1.078c-.755 0-1.4224-.1655-2.0021-.4964-.5797-.331-1.0254-.8062-1.3372-1.4256-.3117-.6194-.4676-1.3381-.4676-2.1561 0-1.272.3361-2.2649 1.0084-2.9789.6722-.714 1.6197-1.0709 2.8424-1.0709 1.1691 0 2.0946.3664 2.7766 1.0993.682.7281 1.023 1.7116 1.023 2.9505zm-5.8821 0c0 1.8109.6893 2.7164 2.0678 2.7164 1.364 0 2.046-.9055 2.046-2.7164 0-1.7921-.6869-2.6881-2.0606-2.6881-.7209 0-1.2446.2317-1.571.6951-.3215.4633-.4822 1.1277-.4822 1.993z"/><path d="m39.8744 34.4749v-3.8087h1.6003v3.8087l3.1127-3.8087h1.8121l-3.1785 3.7945 3.4635 4.0498h-1.8925l-3.3173-3.9789v3.9789h-1.6003v-3.9789l-3.31 3.9789h-1.8852l3.4562-4.0498-3.1712-3.7945h1.8121z"/><path d="m51.4632 38.6523c-1.2567 0-2.2407-.3546-2.952-1.0638-.7063-.714-1.0595-1.6951-1.0595-2.9434 0-1.2814.3288-2.2885.9865-3.0214.6576-.7329 1.5612-1.0993 2.7108-1.0993 1.0669 0 1.9096.3144 2.5283.9433.6186.6288.9279 1.4941.9279 2.5958v.9007h-5.3852c.0244.7613.2363 1.3476.6357 1.759.3995.4066.9621.6099 1.6879.6099.4774 0 .9207-.0425 1.3299-.1276.414-.0899.8573-.2365 1.3299-.4398v1.3547c-.419.1939-.8428.331-1.2715.4114-.4286.0803-.9182.1205-1.4687.1205zm-.3142-6.8655c-.5455 0-.984.1679-1.3152.5036-.3264.3357-.5212.8251-.5846 1.4681h3.6681c-.0097-.6478-.1705-1.1371-.4822-1.4681-.3118-.3357-.7405-.5036-1.2861-.5036z"/><path d="m59.8151 38.6523c-1.2227 0-2.1531-.3451-2.7913-1.0355-.6332-.695-.9499-1.6903-.9499-2.9859 0-1.3192.3313-2.3334.9938-3.0427.6673-.7092 1.6294-1.0638 2.8862-1.0638.8525 0 1.6197.1536 2.3017.461l-.5188 1.3404c-.7258-.2742-1.325-.4113-1.7975-.4113-1.3981 0-2.0971.9007-2.0971 2.7022 0 .8795.1729 1.5414.5188 1.9859.3507.4397.8622.6596 1.5345.6596.7648 0 1.4881-.1844 2.1701-.5532v1.4539c-.3069.175-.6357.3003-.9864.3759-.3459.0757-.7672.1135-1.2641.1135z"/><path d="m70.0375 30.6662v1.305h-2.6305v6.5393h-1.7244v-6.5393h-2.6305v-1.305z"/><path d="m78.6086 32.6734c0 .9267-.5578 1.487-1.6733 1.6809v.0567c.6235.071 1.1009.2625 1.4321.5745.3313.3121.4969.7164.4969 1.2128 0 .7424-.2923 1.3145-.8768 1.7164-.5797.3972-1.4249.5958-2.5356.5958h-3.858v-7.8443h3.8434c2.1142 0 3.1713.6691 3.1713 2.0072zm-1.5053 3.4256c0-.3782-.151-.6454-.453-.8014-.302-.1608-.7551-.2412-1.3591-.2412h-1.9802v2.22h2.024c1.1789 0 1.7683-.3925 1.7683-1.1774zm-.2119-3.2838c0-.312-.1266-.5366-.3799-.6738-.2485-.1418-.6211-.2127-1.118-.2127h-2.0825v1.8866h1.8267c.5749 0 1.0108-.071 1.308-.2128.2971-.1466.4457-.409.4457-.7873z"/><path d="m84.1691 38.6523c-1.2568 0-2.2408-.3546-2.952-1.0638-.7063-.714-1.0595-1.6951-1.0595-2.9434 0-1.2814.3288-2.2885.9865-3.0214.6576-.7329 1.5612-1.0993 2.7108-1.0993 1.0669 0 1.9096.3144 2.5282.9433.6187.6288.928 1.4941.928 2.5958v.9007h-5.3852c.0244.7613.2363 1.3476.6357 1.759.3995.4066.9621.6099 1.6879.6099.4774 0 .9207-.0425 1.3299-.1276.414-.0899.8573-.2365 1.3298-.4398v1.3547c-.4189.1939-.8427.331-1.2714.4114-.4286.0803-.9182.1205-1.4687.1205zm-.3142-6.8655c-.5455 0-.984.1679-1.3152.5036-.3264.3357-.5212.8251-.5846 1.4681h3.6681c-.0097-.6478-.1705-1.1371-.4822-1.4681-.3118-.3357-.7405-.5036-1.2861-.5036z"/><path d="m90.9792 30.6662v3.1491h3.8069v-3.1491h1.7172v7.8443h-1.7172v-3.3831h-3.8069v3.3831h-1.7171v-7.8443z"/><path d="m100.683 30.6662v3.1491h3.807v-3.1491h1.717v7.8443h-1.717v-3.3831h-3.807v3.3831h-1.7173v-7.8443z"/><path d="m113.726 38.5105-.344-1.0923h-.058c-.39.4776-.782.8039-1.177.9788-.394.1702-.901.2553-1.519.2553-.794 0-1.416-.208-1.864-.6241-.443-.4161-.665-1.0048-.665-1.766 0-.8086.31-1.4185.928-1.8299.619-.4114 1.562-.636 2.828-.6738l1.396-.0425v-.4185c0-.5012-.122-.8747-.366-1.1206-.238-.2506-.611-.3759-1.118-.3759-.414 0-.811.0591-1.191.1773s-.745.2577-1.096.4185l-.555-1.1916c.438-.2222.918-.3901 1.44-.5035.521-.1182 1.013-.1773 1.476-.1773 1.027 0 1.802.2175 2.323.6525.526.435.789 1.1182.789 2.0497v5.2839zm-2.558-1.1348c.624 0 1.123-.1679 1.498-.5036.38-.3404.57-.8156.57-1.4256v-.6808l-1.037.0425c-.809.0284-1.398.1608-1.769.3972-.365.2317-.548.5887-.548 1.071 0 .3498.107.6217.322.8156.214.1891.536.2837.964.2837z"/><path d="m118.176 38.5105h-1.922l2.25-3.2129c-.545-.1513-.974-.4208-1.286-.8086-.311-.3924-.467-.8771-.467-1.4539 0-.7424.273-1.3216.818-1.7377.546-.4208 1.291-.6312 2.236-.6312h3.683v7.8443h-1.725v-3.0214h-1.629zm.248-5.4612c0 .4019.156.7045.468.9078.316.1986.74.2979 1.271.2979h1.6v-2.3263h-1.87c-.468 0-.831.0969-1.089.2908-.253.1938-.38.4704-.38.8298z"/><path d="m135.055 30.6662v1.305h-3.508v6.5393h-1.717v-7.8443z"/><path d="m141.667 38.5105-.343-1.0923h-.058c-.39.4776-.782.8039-1.177.9788-.394.1702-.901.2553-1.52.2553-.794 0-1.415-.208-1.863-.6241-.443-.4161-.665-1.0048-.665-1.766 0-.8086.309-1.4185.928-1.8299s1.561-.636 2.828-.6738l1.396-.0425v-.4185c0-.5012-.122-.8747-.366-1.1206-.238-.2506-.611-.3759-1.118-.3759-.414 0-.811.0591-1.191.1773s-.745.2577-1.096.4185l-.555-1.1916c.438-.2222.918-.3901 1.439-.5035.522-.1182 1.014-.1773 1.476-.1773 1.028 0 1.803.2175 2.324.6525.526.435.789 1.1182.789 2.0497v5.2839zm-2.557-1.1348c.624 0 1.123-.1679 1.498-.5036.38-.3404.57-.8156.57-1.4256v-.6808l-1.038.0425c-.808.0284-1.398.1608-1.768.3972-.365.2317-.548.5887-.548 1.071 0 .3498.107.6217.322.8156.214.1891.535.2837.964.2837z"/><path d="m151.934 38.5105h-1.732v-6.5393h-2.229c-.136 1.6833-.321 2.9978-.555 3.9434-.229.9457-.531 1.636-.906 2.071-.37.435-.852.6525-1.447.6525-.375 0-.689-.052-.942-.156v-1.305c.18.0662.36.0993.54.0993.497 0 .887-.5414 1.169-1.6242.288-1.0875.512-2.7495.673-4.986h5.429z"/><path d="m157.925 38.6523c-1.256 0-2.24-.3546-2.952-1.0638-.706-.714-1.059-1.6951-1.059-2.9434 0-1.2814.329-2.2885.986-3.0214.658-.7329 1.562-1.0993 2.711-1.0993 1.067 0 1.91.3144 2.528.9433.619.6288.928 1.4941.928 2.5958v.9007h-5.385c.025.7613.236 1.3476.636 1.759.399.4066.962.6099 1.688.6099.477 0 .92-.0425 1.33-.1276.414-.0899.857-.2365 1.33-.4398v1.3547c-.419.1939-.843.331-1.272.4114-.429.0803-.918.1205-1.469.1205zm-.314-6.8655c-.545 0-.984.1679-1.315.5036-.326.3357-.521.8251-.585 1.4681h3.669c-.01-.6478-.171-1.1371-.483-1.4681-.312-.3357-.74-.5036-1.286-.5036z"/><path d="m167.118 38.6523c-1.023 0-1.817-.357-2.382-1.0709h-.103c.068.6619.103 1.0638.103 1.2057v3.2129h-1.718v-11.3338h1.389c.039.1466.119.4965.241 1.0497h.088c.535-.7944 1.339-1.1915 2.411-1.1915 1.008 0 1.792.3546 2.353 1.0638.565.7093.847 1.7046.847 2.986 0 1.2813-.287 2.2814-.862 3.0001-.57.7187-1.359 1.078-2.367 1.078zm-.417-6.7662c-.682 0-1.181.1939-1.498.5816-.312.3877-.467 1.0071-.467 1.8582v.2483c0 .9551.155 1.6478.467 2.0781.312.4255.821.6383 1.527.6383.595 0 1.053-.2364 1.374-.7093.322-.4728.482-1.1466.482-2.0213 0-.8795-.16-1.5438-.482-1.993-.317-.4539-.784-.6809-1.403-.6809z"/><path d="m175.871 38.6523c-1.256 0-2.241-.3546-2.952-1.0638-.706-.714-1.059-1.6951-1.059-2.9434 0-1.2814.329-2.2885.986-3.0214.658-.7329 1.561-1.0993 2.711-1.0993 1.067 0 1.91.3144 2.528.9433.619.6288.928 1.4941.928 2.5958v.9007h-5.385c.024.7613.236 1.3476.636 1.759.399.4066.962.6099 1.688.6099.477 0 .92-.0425 1.33-.1276.414-.0899.857-.2365 1.329-.4398v1.3547c-.419.1939-.842.331-1.271.4114-.429.0803-.918.1205-1.469.1205zm-.314-6.8655c-.545 0-.984.1679-1.315.5036-.327.3357-.521.8251-.585 1.4681h3.668c-.009-.6478-.17-1.1371-.482-1.4681-.312-.3357-.74-.5036-1.286-.5036z"/><path d="m181.79 38.5105h-1.922l2.251-3.2129c-.546-.1513-.975-.4208-1.286-.8086-.312-.3924-.468-.8771-.468-1.4539 0-.7424.273-1.3216.818-1.7377.546-.4208 1.291-.6312 2.236-.6312h3.683v7.8443h-1.724v-3.0214h-1.63zm.248-5.4612c0 .4019.156.7045.468.9078.317.1986.74.2979 1.271.2979h1.601v-2.3263h-1.871c-.468 0-.831.0969-1.089.2908-.253.1938-.38.4704-.38.8298z"/><path d="m0 22.7342h12.6452c4.9871 0 7.5399-2.1922 7.5399-6.3656v-.0649c0-3.1016-1.623-4.9853-4.7505-5.5212v-.2923c2.6204-.4871 3.9897-2.1435 3.9897-4.83912v-.0812c0-3.66995-2.3836-5.56988-7.0495-5.56988h-12.3748zm4.9871-13.42941v-6.08952h5.9c2.3836 0 3.567 1.0068 3.567 2.98792v.06496c0 2.0136-1.1834 3.03664-3.567 3.03664zm0 10.19791v-7.2425h6.0521c2.6204 0 3.9221 1.2017 3.9221 3.5563v.065c0 2.4033-1.3017 3.6212-3.9221 3.6212z"/><path d="m24.8827 0v22.7342h4.9195v-22.7342z"/><path d="m40.0956 23.1564c3.9727 0 6.8636-1.705 7.9286-4.5955l.3381.0812c-.6424 3.1503.0338 4.5143 3.9221 4.5143.4902 0 .9805-.0487 1.3862-.1137l.5748-2.8093-.8453-.0162c-.9298-.0162-1.2003-.2273-1.2003-1.3803v-7.8108c0-3.86482-2.671-5.71604-8.3681-5.71604-6.0522 0-9.112 2.28966-8.8585 6.25194l4.8519.3897c-.2029-2.61443 1.1834-3.79986 3.9051-3.79986 2.4344 0 3.584.86065 3.584 2.82556v.9581l-4.8012.8444c-4.8011.8606-7.9793 2.3221-7.9793 5.8946v.0487c0 2.8256 1.9948 4.4332 5.5619 4.4332zm1.961-3.1503c-1.6567 0-2.5527-.5683-2.5527-1.7375v-.0325c0-1.6726 1.5722-2.3546 4.6828-2.9392l3.1275-.5846v.7957c0 2.6144-2.4513 4.4981-5.2576 4.4981z"/><path d="m58.3852 22.7342h4.9195v-7.9245c0-3.8323 1.8765-6.20318 4.9871-6.20318 2.316 0 3.4656 1.15295 3.4656 3.36138v10.7663h4.9194v-11.903c0-3.57249-2.1808-5.45618-6.238-5.45618-3.6854 0-6.2043 1.55892-7.692 4.80668l-.3381-.1462c.6762-1.93238.9129-3.08533.9129-4.35195h-4.9364z"/><path d="m91.3149 23.1402c5.7986 0 9.0441-2.241 9.5351-6.5767l-4.9706-.5359c-.2029 2.7281-1.7582 4.1084-4.5476 4.1084-3.1275 0-4.7504-1.8837-4.7504-5.6023v-.7957c0-3.6375 1.6398-5.47249 4.6997-5.47249 2.8232 0 4.294 1.5102 4.5137 4.53059l4.9022-.5359c-.388-4.59552-3.5159-6.98261-9.399-6.98261-6.3902 0-9.7544 3.00416-9.7544 8.75271v.2111c0 5.8459 3.3303 8.8988 9.7713 8.8988z"/><path d="m105.75 22.7342h4.92v-7.9245c0-3.8323 1.859-6.18694 4.987-6.18694 2.316 0 3.465 1.13671 3.465 3.34514v10.7663h4.92v-11.903c0-3.57249-2.198-5.45618-6.238-5.45618-3.72 0-6.222 1.55891-7.692 4.79038l-.355-.1299c.659-1.81871.896-3.16652.913-4.77415v-5.26135h-4.92z"/><path d="m134.251 23.1564c3.972 0 6.863-1.705 7.928-4.5955l.338.0812c-.642 3.1503.034 4.5143 3.922 4.5143.491 0 .981-.0487 1.387-.1137l.574-2.8093-.845-.0162c-.93-.0162-1.2-.2273-1.2-1.3803v-7.8108c0-3.86482-2.671-5.71604-8.368-5.71604-6.052 0-9.112 2.28966-8.859 6.25194l4.852.3897c-.203-2.61443 1.183-3.79986 3.905-3.79986 2.435 0 3.584.86065 3.584 2.82556v.9581l-4.801.8444c-4.801.8606-7.979 2.3221-7.979 5.8946v.0487c0 2.8256 1.995 4.4332 5.562 4.4332zm1.961-3.1503c-1.657 0-2.553-.5683-2.553-1.7375v-.0325c0-1.6726 1.572-2.3546 4.683-2.9392l3.127-.5846v.7957c0 2.6144-2.451 4.4981-5.257 4.4981z"/><path d="m152.54 22.7342h4.92v-7.1288c0-4.4494 1.437-6.08951 5.19-6.34933l2.417-.17862-.575-3.92977c-3.972.29229-5.815 1.49396-7.641 5.03402l-.321-.1462c.794-2.27339.98-3.18276.947-4.35195h-4.937z"/><path d="m175.935 23.0427c3.652 0 6.036-1.6238 7.236-4.563l.355.1136c-.575 1.7863-.879 3.1991-.896 4.1409h4.97v-22.7342h-4.919v4.62804c0 1.78626.253 3.2315.862 5.19639l-.338.12991c-1.201-2.92297-3.601-4.6118-7.27-4.6118-5.071 0-7.742 2.97169-7.742 8.65526v.4059c0 5.6674 2.671 8.639 7.742 8.639zm1.86-2.9229c-3.043 0-4.632-1.8675-4.632-5.5537v-.7469c0-3.7025 1.589-5.58617 4.632-5.58617 3.178 0 4.886 1.98117 4.886 5.66727v.5846c0 3.67-1.708 5.6349-4.886 5.6349z"/></g></svg>