<svg fill="none" height="79" viewBox="0 0 81 79" width="81" xmlns="http://www.w3.org/2000/svg"><g fill="#fff"><path d="m0 0h25.1624v6.2906h-25.1624z" transform="matrix(-.72074 .693205 .72074 .693205 18.1355 57.1965)"/><path clip-rule="evenodd" d="m44.2696 65.7708c-16.2285 0-29.3843-13.0874-29.3843-29.2315s13.1558-29.23144 29.3843-29.23144 29.3843 13.08734 29.3843 29.23144-13.1558 29.2315-29.3843 29.2315zm0 7.3078c-20.2856 0-36.73037-16.3592-36.73037-36.5393s16.44477-36.5393 36.73037-36.5393 36.7304 16.3592 36.7304 36.5393-16.4448 36.5393-36.7304 36.5393z" fill-rule="evenodd"/><path d="m42 24v25h5.9954l.0001-25z"/><path d="m57.2336 34h-25v5.9954l25 .0001z"/></g></svg>