<svg fill="none" height="22" viewBox="0 0 23 22" width="23" xmlns="http://www.w3.org/2000/svg"><g fill="#fff"><path d="m0 0h6.8678v1.71695h-6.8678z" transform="matrix(-.718931 .695081 .718931 .695081 4.9375 15.6534)"/><path clip-rule="evenodd" d="m12.0969 18c-4.56649 0-8.09998-3.6771-8.09998-8 0-4.32285 3.53349-8 8.09998-8 4.5665 0 8.1 3.67715 8.1 8 0 4.3229-3.5335 8-8.1 8zm0 2c-5.52282 0-9.99998-4.4772-9.99998-10 0-5.52285 4.47716-10 9.99998-10 5.5229 0 10 4.47715 10 10 0 5.5228-4.4771 10-10 10z" fill-rule="evenodd"/></g></svg>