<svg fill="none" height="16" viewBox="0 0 16 16" width="16" xmlns="http://www.w3.org/2000/svg"><path d="m15.5 8c0 4.1421-3.3579 7.5-7.5 7.5-4.14214 0-7.5-3.3579-7.5-7.5 0-4.14214 3.35786-7.5 7.5-7.5 4.1421 0 7.5 3.35786 7.5 7.5z" stroke="#9d5cd0"/><path d="m7.26154 6.4551h1.47692v6.5449h-1.47692zm.73846-1.55251c-.28718 0-.5282-.09133-.72308-.27398-.18461-.18264-.27692-.40588-.27692-.66971 0-.26382.09231-.48706.27692-.66971.19488-.19279.4359-.28919.72308-.28919s.52308.09132.70769.27397c.19487.1725.29231.39067.29231.65449 0 .27397-.09744.50736-.29231.70015-.18461.18265-.42051.27398-.70769.27398z" fill="#000"/></svg>