<svg fill="none" height="45" viewBox="0 0 45 45" width="45" xmlns="http://www.w3.org/2000/svg"><path d="m22.5 0c-12.426 0-22.5 10.0736-22.5 22.5s10.074 22.5 22.5 22.5 22.5-10.0736 22.5-22.5-10.074-22.5-22.5-22.5zm11.4132 24.9335c1.0487 1.0242 2.1582 1.9882 3.0996 3.1184.4171.5.8102 1.0169 1.1094 1.5984.4273.8291.0415 1.7383-.7006 1.7876l-4.6096-.001c-1.1905.0985-2.1379-.3816-2.9366-1.1955-.6376-.6487-1.2292-1.3415-1.8433-2.0122-.2509-.2753-.5151-.5345-.83-.7385-.6284-.4088-1.1744-.2835-1.5344.3729-.3669.668-.4507 1.4083-.4857 2.1517-.0501 1.0869-.3779 1.371-1.4685 1.4221-2.3303.1091-4.5414-.2445-6.5965-1.4193-1.8129-1.0363-3.216-2.4988-4.4387-4.1547-2.381-3.2281-4.20449-6.771-5.8429-10.4156-.36875-.8208-.09898-1.26.80654-1.2771 1.50445-.029 3.00886-.0253 4.51336-.0013.6123.0096 1.0174.36 1.2526.9377.813 2.0003 1.8097 3.9034 3.0586 5.6684.3329.47.6726.9387 1.1565 1.2706.534.3664.9409.2454 1.1928-.3508.1611-.3789.2306-.784.2656-1.19.1197-1.3908.1339-2.7811-.0732-4.1663-.1289-.8668-.6164-1.4266-1.4805-1.5905-.4401-.0833-.3757-.2463-.1616-.4977.3715-.4345.7195-.7034 1.4151-.7034l5.2081-.0009c.8208.1611 1.0049.5294 1.1163 1.3562l.0046 5.7876c-.0096.32.1607 1.2683.7352 1.4778.4604.1519.7642-.2173 1.0395-.5087 1.249-1.3254 2.1388-2.8897 2.9357-4.5088.3517-.714.6551-1.4528.9497-2.1931.2192-.5474.5598-.8167 1.1776-.8075l5.0152.006c.1477 0 .2978.0014.4442.0267.8452.1446 1.0768.5082.8153 1.3327-.4116 1.2955-1.2112 2.3746-1.9929 3.4564-.8378 1.1583-1.7314 2.276-2.561 3.4393-.7623 1.0635-.702 1.5989.2445 2.5224z" fill="#cacaca"/></svg>